/* XPM */
static char * close_inactive_xpm[] = {
"9 9 5 1",
" 	c None",
".	c #000000",
"+	c #19FF19",
"@	c #14FF14",
"#	c #00FF00",
".........",
".+@...@+.",
".@#@.@+@.",
"..@+@+@..",
"...@+@...",
"..@+@+@..",
".@+@.@#@.",
".+@...@+.",
"........."};
