/* XPM */
static char * close_pressed_xpm[] = {
"9 9 5 1",
" 	c None",
".	c #000000",
"+	c #FF1919",
"@	c #FF1414",
"#	c #FF0000",
".........",
".+@...@+.",
".@+@.@+@.",
"..@+@+@..",
"...@#@...",
"..@###@..",
".@+@.@+@.",
".+@...@+.",
"........."};
