/* XPM */
static char * hide_active_xpm[] = {
"9 9 4 1",
" 	c None",
".	c #000000",
"+	c #FEFEFE",
"@	c #FFFFFF",
".........",
".........",
".........",
".........",
".........",
"+@+++++++",
"+++++++++",
".........",
"........."};
