/* XPM */
static char * hide_inactive_xpm[] = {
"9 9 3 1",
" 	c None",
".	c #000000",
"+	c #19FF19",
".........",
".........",
".........",
".........",
".........",
"+++++++++",
"+++++++++",
".........",
"........."};
