/* XPM */
static char * maximize_pressed_xpm[] = {
"9 9 3 1",
" 	c None",
".	c #000000",
"+	c #FEFEFE",
".........",
".+++++++.",
".+.....+.",
".+.....+.",
".+.....+.",
".+.....+.",
".+.....+.",
".+++++++.",
"........."};
