/* XPM */
static char * title_3_active_xpm[] = {
"1 16 5 1",
" 	c None",
".	c #00FF00",
"+	c #00FE00",
"@	c #000000",
"#	c #02FF00",
".",
"+",
"@",
"@",
"@",
"@",
"@",
"@",
"@",
"@",
"@",
"@",
"@",
"@",
"+",
"#"};
