/* XPM */
static char * top_right_active_xpm[] = {
"4 16 6 1",
" 	c None",
".	c #0FFF00",
"+	c #00FF00",
"@	c #00FE00",
"#	c #000000",
"$	c #02FF00",
"...+",
"@@@@",
"##@@",
"##@@",
"##@@",
"##@@",
"##@@",
"##@@",
"##@@",
"##@@",
"##@@",
"##@@",
"##@@",
"##@@",
"@@@@",
"@@@$"};
