/* XPM */
static char * bottom_left_active_xpm[] = {
"4 4 3 1",
" 	c None",
".	c #00FF00",
"+	c #004000",
".++.",
".+++",
".+++",
"...."};
