/* XPM */
static char * close_prelight_xpm[] = {
"9 9 4 1",
" 	c None",
".	c #FE0000",
"+	c #004000",
"@	c #FF0000",
"..+++++..",
".@.+++.@.",
"+.@.+.@.+",
"++.@.@.++",
"+++.@.+++",
"++.@.@.++",
"+.@.+.@.+",
".@.+++.@.",
"..+++++.."};
