/* XPM */
static char * close_inactive_xpm[] = {
"9 9 3 1",
" 	c None",
".	c #3EFF00",
"+	c #000000",
".+++++++.",
"+.+++++.+",
"++.+++.++",
"+++.+.+++",
"++++.++++",
"+++.+.+++",
"++.+++.++",
"+.+++++.+",
".+++++++."};
