/* XPM */
static char * hide_active_xpm[] = {
"9 9 3 1",
" 	c None",
".	c #004000",
"+	c #FFFFFF",
".........",
".........",
".........",
".........",
".........",
".........",
".........",
".........",
"+++++++++"};
