/* XPM */
static char * left_inactive_xpm[] = {
"4 1 3 1",
" 	c None",
".	c #00FF00",
"+	c #000000",
".++."};
