/* XPM */
static char * title_2_active_xpm[] = {
"1 18 3 1",
" 	c None",
".	c #00FF00",
"+	c #004000",
".",
"+",
"+",
"+",
"+",
"+",
"+",
"+",
"+",
"+",
"+",
"+",
"+",
"+",
"+",
"+",
"+",
"."};
