/* XPM */
static char * top_left_inactive_xpm[] = {
"4 18 3 1",
" 	c None",
".	c #00FF00",
"+	c #000000",
"....",
".+++",
".+++",
".+++",
".+++",
".+++",
".+++",
".+++",
".+++",
".+++",
".+++",
".+++",
".+++",
".+++",
".+++",
".+++",
".+++",
".++."};
