/* XPM */
static char * bottom_active_xpm[] = {
"1 22 3 1",
" 	c None",
".	c #00FFA4",
"+	c #050D0A",
" ",
" ",
" ",
" ",
".",
"+",
"+",
".",
" ",
" ",
" ",
" ",
" ",
" ",
" ",
" ",
" ",
" ",
" ",
" ",
" ",
" "};
