/* XPM */
static char * hide_active_xpm[] = {
"22 19 3 1",
" 	c None",
".	c #00FFA4",
"+	c #050D0A",
"                      ",
"                      ",
"                      ",
"                      ",
"                      ",
"                      ",
"                      ",
"                      ",
"                      ",
"     ............     ",
"     .++++++++++.     ",
"     .++++++++++.     ",
"......++++++++++......",
"++++++++++++++++++++++",
"++++++++++++++++++++++",
"......++++++++++......",
"     .++++++++++.     ",
"     ............     ",
"                      "};
