/* XPM */
static char * left_active_xpm[] = {
"22 1 3 1",
" 	c None",
".	c #00FFA4",
"+	c #050D0A",
"              .++.    "};
