/* XPM */
static char * maximize_prelight_xpm[] = {
"22 19 4 1",
" 	c None",
".	c #00FFA4",
"+	c #050D0A",
"@	c #00FEA3",
"                      ",
"                      ",
"                      ",
"                      ",
"                      ",
"                      ",
"                      ",
"                      ",
"                      ",
"     ............     ",
"     ............     ",
"     ............     ",
"......................",
"+++++@..........@+++++",
"+++++@..........@+++++",
"......................",
"     ............     ",
"     ............     ",
"                      "};
