/* XPM */
static char * title_4_active_xpm[] = {
"22 22 3 1",
" 	c None",
".	c #00FFA4",
"+	c #050D0A",
".                     ",
"+.                    ",
"++.                   ",
"+++.                  ",
"++++.                 ",
"+++++.                ",
"++++++.               ",
"+++++++.              ",
"++++++++.             ",
"+++++++++.            ",
"++++++++++.           ",
"+++++++++++.          ",
"++++++++++++.         ",
"+++++++++++++.        ",
"++++++++++++++........",
"++++++++++++++++++++++",
"++++++++++++++++++++++",
"......................",
"                      ",
"                      ",
"                      ",
"                      "};
