/* XPM */
static char * top_left_active_xpm[] = {
"22 200 3 1",
" 	c None",
".	c #00FFA4",
"+	c #050D0A",
"                     .",
"                    .+",
"                   .++",
"                  .+++",
"                 .++++",
"                .+++++",
"               .++++++",
"              .+++++++",
"             .++++++++",
"            .+++++++++",
"           .++++++++++",
"          .+++++++++++",
"         .++++++++++++",
"        .+++++++++++++",
"       .++++++++++++++",
"      .+++++++++++++++",
"     .++++++++++++++++",
"    .++++++++++++.....",
"   .+++++++++++++.    ",
"  .++++++++++++++.    ",
" .+++++++++++++++.    ",
".++++++++++++++++.    ",
".++++++++++++++++.    ",
".++++++++++++++++.    ",
".++++++++++++++++.    ",
".++++++++++++++++.    ",
".++++++++++++++++.    ",
".++++++++++++++++.    ",
".++++++++++++++++.    ",
".++++++++++++++++.    ",
".++++++++++++++++.    ",
".++++++++++++++++.    ",
".++++++++++++++++.    ",
".++++++++++++++++.    ",
".++++++++++++++++.    ",
".++++++++++++++++.    ",
".++++++++++++++++.    ",
".++++++++++++++++.    ",
".++++++++++++++++.    ",
".++++++++++++++++.    ",
".++++++++++++++++.    ",
".++++++++++++++++.    ",
".++++++++++++++++.    ",
".++++++++++++++++.    ",
".++++++++++++++++.    ",
".++++++++++++++++.    ",
".++++++++++++++++.    ",
".++++++++++++++++.    ",
".++++++++++++++++.    ",
".++++++++++++++++.    ",
".++++++++++++++++.    ",
".++++++++++++++++.    ",
".++++++++++++++++.    ",
".++++++++++++++++.    ",
".++++++++++++++++.    ",
".++++++++++++++++.    ",
".++++++++++++++++.    ",
".++++++++++++++++.    ",
".++++++++++++++++.    ",
".++++++++++++++++.    ",
".++++++++++++++++.    ",
".++++++++++++++++.    ",
".++++++++++++++++.    ",
".++++++++++++++++.    ",
".++++++++++++++++.    ",
".++++++++++++++++.    ",
".++++++++++++++++.    ",
".++++++++++++++++.    ",
".++++++++++++++++.    ",
".++++++++++++++++.    ",
".++++++++++++++++.    ",
".++++++++++++++++.    ",
".++++++++++++++++.    ",
".++++++++++++++++.    ",
".++++++++++++++++.    ",
".++++++++++++++++.    ",
".++++++++++++++++.    ",
".++++++++++++++++.    ",
".++++++++++++++++.    ",
".++++++++++++++++.    ",
".++++++++++++++++.    ",
".++++++++++++++++.    ",
".++++++++++++++++.    ",
".++++++++++++++++.    ",
".++++++++++++++++.    ",
".++++++++++++++++.    ",
".++++++++++++++++.    ",
".++++++++++++++++.    ",
".++++++++++++++++.    ",
".++++++++++++++++.    ",
".++++++++++++++++.    ",
".++++++++++++++++.    ",
".++++++++++++++++.    ",
".++++++++++++++++.    ",
".++++++++++++++++.    ",
".++++++++++++++++.    ",
".++++++++++++++++.    ",
".++++++++++++++++.    ",
".++++++++++++++++.    ",
".++++++++++++++++.    ",
".++++++++++++++++.    ",
".++++++++++++++++.    ",
".++++++++++++++++.    ",
".++++++++++++++++.    ",
".++++++++++++++++.    ",
".++++++++++++++++.    ",
".++++++++++++++++.    ",
".++++++++++++++++.    ",
".++++++++++++++++.    ",
".++++++++++++++++.    ",
".++++++++++++++++.    ",
".++++++++++++++++.    ",
".++++++++++++++++.    ",
".++++++++++++++++.    ",
".++++++++++++++++.    ",
".++++++++++++++++.    ",
".++++++++++++++++.    ",
".++++++++++++++++.    ",
".++++++++++++++++.    ",
".++++++++++++++++.    ",
".++++++++++++++++.    ",
".++++++++++++++++.    ",
".++++++++++++++++.    ",
".++++++++++++++++.    ",
".++++++++++++++++.    ",
".++++++++++++++++.    ",
".++++++++++++++++.    ",
".++++++++++++++++.    ",
".++++++++++++++++.    ",
".++++++++++++++++.    ",
".++++++++++++++++.    ",
".++++++++++++++++.    ",
".++++++++++++++++.    ",
".++++++++++++++++.    ",
".++++++++++++++++.    ",
".++++++++++++++++.    ",
".++++++++++++++++.    ",
".++++++++++++++++.    ",
".++++++++++++++++.    ",
".++++++++++++++++.    ",
".++++++++++++++++.    ",
".++++++++++++++++.    ",
".++++++++++++++++.    ",
".++++++++++++++++.    ",
".++++++++++++++++.    ",
".++++++++++++++++.    ",
".++++++++++++++++.    ",
".++++++++++++++++.    ",
".++++++++++++++++.    ",
".++++++++++++++++.    ",
".++++++++++++++++.    ",
".++++++++++++++++.    ",
".++++++++++++++++.    ",
".++++++++++++++++.    ",
".++++++++++++++++.    ",
".++++++++++++++++.    ",
".++++++++++++++++.    ",
".++++++++++++++++.    ",
".++++++++++++++++.    ",
".++++++++++++++++.    ",
".++++++++++++++++.    ",
".++++++++++++++++.    ",
".++++++++++++++++.    ",
".++++++++++++++++.    ",
".++++++++++++++++.    ",
".++++++++++++++++.    ",
".++++++++++++++++.    ",
".++++++++++++++++.    ",
".++++++++++++++++.    ",
".++++++++++++++++.    ",
".++++++++++++++++.    ",
".++++++++++++++++.    ",
".++++++++++++++++.    ",
".++++++++++++++++.    ",
".++++++++++++++++.    ",
".++++++++++++++++.    ",
".++++++++++++++++.    ",
".++++++++++++++++.    ",
".++++++++++++++++.    ",
".++++++++++++++++.    ",
".++++++++++++++++.    ",
".++++++++++++++++.    ",
".++++++++++++++++.    ",
".++++++++++++++++.    ",
".++++++++++++++++.    ",
".++++++++++++++++.    ",
" .+++++++++++++++.    ",
"  .++++++++++++++.    ",
"   .+++++++++++++.    ",
"    .++++++++++++.    ",
"     .+++++++++++.    ",
"      .++++++++++.    ",
"       .+++++++++.    ",
"        .++++++++.    ",
"         .+++++++.    ",
"          .++++++.    ",
"           .+++++.    ",
"            .++++.    ",
"             .+++.    ",
"              .++.    "};
