/* XPM */
static char * bottom_left_inactive_xpm[] = {
"22 22 3 1",
" 	c None",
".	c #00FF00",
"+	c #000000",
"              .++.    ",
"              .++.    ",
"              .++.    ",
"              .++.    ",
"              .++.....",
"              .+++++++",
"              .+++++++",
"              ........",
"                      ",
"                      ",
"                      ",
"                      ",
"                      ",
"                      ",
"                      ",
"                      ",
"                      ",
"                      ",
"                      ",
"                      ",
"                      ",
"                      "};
