/* XPM */
static char * right_inactive_xpm[] = {
"22 1 3 1",
" 	c None",
".	c #00FF00",
"+	c #000000",
"    .++.              "};
