/* XPM */
static char * stick_prelight_xpm[] = {
"22 19 4 1",
" 	c None",
".	c #00FF00",
"+	c #0018FF",
"@	c #000000",
"                      ",
"                      ",
"                      ",
"                      ",
"                      ",
"                      ",
"                      ",
"                      ",
"                      ",
"     ............     ",
"     .++++++++++.     ",
"     .++++++++++.     ",
"......++++++++++......",
"@@@@@@++++++++++@@@@@@",
"@@@@@@++++++++++@@@@@@",
"......++++++++++......",
"     .++++++++++.     ",
"     ............     ",
"                      "};
