/* XPM */
static char * title_1_active_xpm[] = {
"4 22 3 1",
" 	c None",
".	c #00FF00",
"+	c #001B00",
"....",
"++++",
"++++",
"++++",
"++++",
"++++",
"++++",
"++++",
"++++",
"++++",
"++++",
"++++",
"++++",
"++++",
"++++",
"++++",
"++++",
"....",
"    ",
"    ",
"    ",
"    "};
