/* XPM */
static char * title_5_inactive_xpm[] = {
"4 22 3 1",
" 	c None",
".	c #00FF00",
"+	c #000000",
"    ",
"    ",
"    ",
"    ",
"    ",
"    ",
"    ",
"    ",
"    ",
"    ",
"    ",
"    ",
"    ",
"    ",
"....",
"++++",
"++++",
"....",
"    ",
"    ",
"    ",
"    "};
