/* XPM */
static char * top_left_inactive_xpm[] = {
"22 200 20 1",
" 	c None",
".	c #00FC00",
"+	c #00FD00",
"@	c #000000",
"#	c #00FE00",
"$	c #00FF00",
"%	c #00F600",
"&	c #00EA00",
"*	c #00E500",
"=	c #00F100",
"-	c #00F800",
";	c #00FB00",
">	c #00FA00",
",	c #00F900",
"'	c #00F700",
")	c #00F500",
"!	c #00E800",
"~	c #00D800",
"{	c #00E100",
"]	c #00F000",
"                     .",
"                    +@",
"                   #@@",
"                  #@@@",
"                 #@@@@",
"                #@@@@@",
"               #@@@@@@",
"              #@@@@@@@",
"             $@@@@@@@@",
"            $@@@@@@@@@",
"           $@@@@@@@@@@",
"          $@@@@@@@@@@@",
"         $@@@@@@@@@@@@",
"        $@@@@@@@@@@@@@",
"       $@@@@@@@@@@@@@@",
"      #@@@@@@@@@@@@@@@",
"     #@@@@@@@@@@@@@@@@",
"    .@@@@@@@@@@@@#$$$$",
"   %@@@@@@@@@@@@@#    ",
"  &@@@@@@@@@@@@@@#    ",
" *@@@@@@@@@@@@@@@#    ",
"=@@@@@@@@@@@@@@@@#    ",
"-@@@@@@@@@@@@@@@@#    ",
";@@@@@@@@@@@@@@@@#    ",
".@@@@@@@@@@@@@@@@#    ",
"+@@@@@@@@@@@@@@@@$    ",
"#@@@@@@@@@@@@@@@@#    ",
"$@@@@@@@@@@@@@@@@$    ",
"$@@@@@@@@@@@@@@@@#    ",
"$@@@@@@@@@@@@@@@@$    ",
"$@@@@@@@@@@@@@@@@#    ",
"$@@@@@@@@@@@@@@@@#    ",
"$@@@@@@@@@@@@@@@@#    ",
"$@@@@@@@@@@@@@@@@#    ",
"$@@@@@@@@@@@@@@@@#    ",
"$@@@@@@@@@@@@@@@@#    ",
"$@@@@@@@@@@@@@@@@+    ",
"$@@@@@@@@@@@@@@@@#    ",
"$@@@@@@@@@@@@@@@@+    ",
"$@@@@@@@@@@@@@@@@#    ",
"$@@@@@@@@@@@@@@@@+    ",
"$@@@@@@@@@@@@@@@@#    ",
"$@@@@@@@@@@@@@@@@#    ",
"$@@@@@@@@@@@@@@@@#    ",
"$@@@@@@@@@@@@@@@@$    ",
"$@@@@@@@@@@@@@@@@$    ",
"$@@@@@@@@@@@@@@@@$    ",
"$@@@@@@@@@@@@@@@@$    ",
"$@@@@@@@@@@@@@@@@$    ",
"$@@@@@@@@@@@@@@@@$    ",
"$@@@@@@@@@@@@@@@@$    ",
"$@@@@@@@@@@@@@@@@$    ",
"$@@@@@@@@@@@@@@@@$    ",
"$@@@@@@@@@@@@@@@@$    ",
"$@@@@@@@@@@@@@@@@$    ",
"$@@@@@@@@@@@@@@@@$    ",
"$@@@@@@@@@@@@@@@@$    ",
"$@@@@@@@@@@@@@@@@$    ",
"$@@@@@@@@@@@@@@@@$    ",
"$@@@@@@@@@@@@@@@@$    ",
"$@@@@@@@@@@@@@@@@$    ",
"$@@@@@@@@@@@@@@@@$    ",
"$@@@@@@@@@@@@@@@@$    ",
"$@@@@@@@@@@@@@@@@$    ",
"$@@@@@@@@@@@@@@@@$    ",
"$@@@@@@@@@@@@@@@@$    ",
"$@@@@@@@@@@@@@@@@$    ",
"$@@@@@@@@@@@@@@@@$    ",
"$@@@@@@@@@@@@@@@@$    ",
"$@@@@@@@@@@@@@@@@$    ",
"$@@@@@@@@@@@@@@@@$    ",
"$@@@@@@@@@@@@@@@@$    ",
"$@@@@@@@@@@@@@@@@$    ",
"$@@@@@@@@@@@@@@@@$    ",
"$@@@@@@@@@@@@@@@@$    ",
"$@@@@@@@@@@@@@@@@$    ",
"$@@@@@@@@@@@@@@@@#    ",
"$@@@@@@@@@@@@@@@@$    ",
"$@@@@@@@@@@@@@@@@#    ",
"$@@@@@@@@@@@@@@@@$    ",
"$@@@@@@@@@@@@@@@@#    ",
"$@@@@@@@@@@@@@@@@$    ",
"$@@@@@@@@@@@@@@@@$    ",
"$@@@@@@@@@@@@@@@@$    ",
"$@@@@@@@@@@@@@@@@$    ",
"$@@@@@@@@@@@@@@@@$    ",
"$@@@@@@@@@@@@@@@@$    ",
"$@@@@@@@@@@@@@@@@$    ",
"$@@@@@@@@@@@@@@@@$    ",
"$@@@@@@@@@@@@@@@@$    ",
"$@@@@@@@@@@@@@@@@$    ",
"$@@@@@@@@@@@@@@@@$    ",
"$@@@@@@@@@@@@@@@@$    ",
"$@@@@@@@@@@@@@@@@$    ",
"$@@@@@@@@@@@@@@@@$    ",
"$@@@@@@@@@@@@@@@@$    ",
"$@@@@@@@@@@@@@@@@$    ",
"$@@@@@@@@@@@@@@@@$    ",
"$@@@@@@@@@@@@@@@@$    ",
"$@@@@@@@@@@@@@@@@$    ",
"$@@@@@@@@@@@@@@@@$    ",
"$@@@@@@@@@@@@@@@@$    ",
"$@@@@@@@@@@@@@@@@$    ",
"$@@@@@@@@@@@@@@@@$    ",
"$@@@@@@@@@@@@@@@@$    ",
"$@@@@@@@@@@@@@@@@#    ",
"$@@@@@@@@@@@@@@@@#    ",
"$@@@@@@@@@@@@@@@@#    ",
"$@@@@@@@@@@@@@@@@$    ",
"$@@@@@@@@@@@@@@@@$    ",
"$@@@@@@@@@@@@@@@@$    ",
"$@@@@@@@@@@@@@@@@$    ",
"$@@@@@@@@@@@@@@@@$    ",
"$@@@@@@@@@@@@@@@@$    ",
"$@@@@@@@@@@@@@@@@$    ",
"$@@@@@@@@@@@@@@@@$    ",
"$@@@@@@@@@@@@@@@@$    ",
"$@@@@@@@@@@@@@@@@$    ",
"$@@@@@@@@@@@@@@@@$    ",
"$@@@@@@@@@@@@@@@@$    ",
"$@@@@@@@@@@@@@@@@$    ",
"$@@@@@@@@@@@@@@@@#    ",
"$@@@@@@@@@@@@@@@@#    ",
"$@@@@@@@@@@@@@@@@#    ",
"$@@@@@@@@@@@@@@@@+    ",
"$@@@@@@@@@@@@@@@@+    ",
"$@@@@@@@@@@@@@@@@+    ",
"$@@@@@@@@@@@@@@@@+    ",
"$@@@@@@@@@@@@@@@@.    ",
"$@@@@@@@@@@@@@@@@#    ",
"$@@@@@@@@@@@@@@@@#    ",
"$@@@@@@@@@@@@@@@@#    ",
"$@@@@@@@@@@@@@@@@$    ",
"$@@@@@@@@@@@@@@@@$    ",
"$@@@@@@@@@@@@@@@@$    ",
"$@@@@@@@@@@@@@@@@$    ",
"$@@@@@@@@@@@@@@@@$    ",
"$@@@@@@@@@@@@@@@@$    ",
"$@@@@@@@@@@@@@@@@$    ",
"$@@@@@@@@@@@@@@@@$    ",
"$@@@@@@@@@@@@@@@@$    ",
"$@@@@@@@@@@@@@@@@$    ",
"$@@@@@@@@@@@@@@@@$    ",
"$@@@@@@@@@@@@@@@@$    ",
"$@@@@@@@@@@@@@@@@$    ",
"$@@@@@@@@@@@@@@@@$    ",
"$@@@@@@@@@@@@@@@@$    ",
"$@@@@@@@@@@@@@@@@$    ",
"#@@@@@@@@@@@@@@@@$    ",
"#@@@@@@@@@@@@@@@@$    ",
"+@@@@@@@@@@@@@@@@$    ",
"+@@@@@@@@@@@@@@@@$    ",
"+@@@@@@@@@@@@@@@@$    ",
".@@@@@@@@@@@@@@@@$    ",
"+@@@@@@@@@@@@@@@@$    ",
"+@@@@@@@@@@@@@@@@$    ",
"+@@@@@@@@@@@@@@@@$    ",
"+@@@@@@@@@@@@@@@@$    ",
"+@@@@@@@@@@@@@@@@$    ",
"+@@@@@@@@@@@@@@@@$    ",
"+@@@@@@@@@@@@@@@@$    ",
"#@@@@@@@@@@@@@@@@$    ",
"+@@@@@@@@@@@@@@@@$    ",
"+@@@@@@@@@@@@@@@@$    ",
"+@@@@@@@@@@@@@@@@$    ",
"+@@@@@@@@@@@@@@@@$    ",
"+@@@@@@@@@@@@@@@@$    ",
"+@@@@@@@@@@@@@@@@$    ",
"+@@@@@@@@@@@@@@@@$    ",
"#@@@@@@@@@@@@@@@@$    ",
"+@@@@@@@@@@@@@@@@$    ",
"+@@@@@@@@@@@@@@@@$    ",
"+@@@@@@@@@@@@@@@@$    ",
"+@@@@@@@@@@@@@@@@$    ",
".@@@@@@@@@@@@@@@@$    ",
".@@@@@@@@@@@@@@@@$    ",
";@@@@@@@@@@@@@@@@$    ",
">@@@@@@@@@@@@@@@@$    ",
">@@@@@@@@@@@@@@@@$    ",
",@@@@@@@@@@@@@@@@$    ",
"-@@@@@@@@@@@@@@@@$    ",
"'@@@@@@@@@@@@@@@@$    ",
"'@@@@@@@@@@@@@@@@$    ",
"%@@@@@@@@@@@@@@@@$    ",
")@@@@@@@@@@@@@@@@$    ",
"%@@@@@@@@@@@@@@@@$    ",
" !@@@@@@@@@@@@@@@$    ",
"  ~@@@@@@@@@@@@@@$    ",
"   {@@@@@@@@@@@@@$    ",
"    ]@@@@@@@@@@@@$    ",
"     >@@@@@@@@@@@$    ",
"      +@@@@@@@@@@$    ",
"       #@@@@@@@@@$    ",
"        #@@@@@@@@$    ",
"         $@@@@@@@$    ",
"          $@@@@@@$    ",
"           $@@@@@$    ",
"            $@@@@$    ",
"             $@@@$    ",
"              $@@$    "};
