/* XPM */
static char * top_right_active_xpm[] = {
"22 22 3 1",
" 	c None",
".	c #00FF00",
"+	c #001B00",
"                      ",
"                      ",
"                      ",
"                      ",
"                      ",
"                      ",
"                      ",
"                      ",
"                      ",
"                      ",
"                      ",
"                      ",
"                      ",
"                      ",
"........              ",
"+++++++.              ",
"+++++++.              ",
".....++.              ",
"    .++.              ",
"    .++.              ",
"    .++.              ",
"    .++.              "};
