/* XPM */
static char * top_left_active_xpm[] = {
"22 200 5 1",
" 	c None",
".	c #00FE00",
"+	c #00FF00",
"@	c #001B00",
"#	c #00FD00",
"                     .",
"                    +@",
"                   +@@",
"                  +@@@",
"                 +@@@@",
"                +@@@@@",
"               +@@@@@@",
"              +@@@@@@@",
"             .@@@@@@@@",
"            .@@@@@@@@@",
"           .@@@@@@@@@@",
"          .@@@@@@@@@@@",
"         .@@@@@@@@@@@@",
"        .@@@@@@@@@@@@@",
"       .@@@@@@@@@@@@@@",
"      #@@@@@@@@@@@@@@@",
"     #@@@@@@@@@@@@@@@@",
"    #@@@@@@@@@@@@+++++",
"   #@@@@@@@@@@@@@+    ",
"  .@@@@@@@@@@@@@@+    ",
" .@@@@@@@@@@@@@@@+    ",
"+@@@@@@@@@@@@@@@@+    ",
"+@@@@@@@@@@@@@@@@+    ",
"+@@@@@@@@@@@@@@@@+    ",
"+@@@@@@@@@@@@@@@@+    ",
"+@@@@@@@@@@@@@@@@+    ",
"+@@@@@@@@@@@@@@@@+    ",
"+@@@@@@@@@@@@@@@@+    ",
"+@@@@@@@@@@@@@@@@+    ",
"+@@@@@@@@@@@@@@@@+    ",
"+@@@@@@@@@@@@@@@@+    ",
"+@@@@@@@@@@@@@@@@+    ",
"+@@@@@@@@@@@@@@@@+    ",
"+@@@@@@@@@@@@@@@@+    ",
"+@@@@@@@@@@@@@@@@+    ",
"+@@@@@@@@@@@@@@@@+    ",
"+@@@@@@@@@@@@@@@@+    ",
"+@@@@@@@@@@@@@@@@+    ",
"+@@@@@@@@@@@@@@@@+    ",
"+@@@@@@@@@@@@@@@@+    ",
"+@@@@@@@@@@@@@@@@+    ",
"+@@@@@@@@@@@@@@@@+    ",
"+@@@@@@@@@@@@@@@@+    ",
"+@@@@@@@@@@@@@@@@+    ",
"+@@@@@@@@@@@@@@@@+    ",
"+@@@@@@@@@@@@@@@@+    ",
"+@@@@@@@@@@@@@@@@+    ",
"+@@@@@@@@@@@@@@@@+    ",
"+@@@@@@@@@@@@@@@@+    ",
"+@@@@@@@@@@@@@@@@+    ",
"+@@@@@@@@@@@@@@@@+    ",
"+@@@@@@@@@@@@@@@@+    ",
"+@@@@@@@@@@@@@@@@+    ",
"+@@@@@@@@@@@@@@@@+    ",
"+@@@@@@@@@@@@@@@@+    ",
"+@@@@@@@@@@@@@@@@+    ",
"+@@@@@@@@@@@@@@@@+    ",
"+@@@@@@@@@@@@@@@@+    ",
"+@@@@@@@@@@@@@@@@+    ",
"+@@@@@@@@@@@@@@@@+    ",
"+@@@@@@@@@@@@@@@@+    ",
"+@@@@@@@@@@@@@@@@+    ",
"+@@@@@@@@@@@@@@@@+    ",
"+@@@@@@@@@@@@@@@@+    ",
"+@@@@@@@@@@@@@@@@+    ",
"+@@@@@@@@@@@@@@@@+    ",
"+@@@@@@@@@@@@@@@@+    ",
"+@@@@@@@@@@@@@@@@+    ",
"+@@@@@@@@@@@@@@@@+    ",
"+@@@@@@@@@@@@@@@@+    ",
"+@@@@@@@@@@@@@@@@+    ",
"+@@@@@@@@@@@@@@@@+    ",
"+@@@@@@@@@@@@@@@@+    ",
"+@@@@@@@@@@@@@@@@+    ",
"+@@@@@@@@@@@@@@@@+    ",
"+@@@@@@@@@@@@@@@@+    ",
"+@@@@@@@@@@@@@@@@+    ",
"+@@@@@@@@@@@@@@@@+    ",
"+@@@@@@@@@@@@@@@@+    ",
"+@@@@@@@@@@@@@@@@+    ",
"+@@@@@@@@@@@@@@@@+    ",
"+@@@@@@@@@@@@@@@@+    ",
"+@@@@@@@@@@@@@@@@+    ",
"+@@@@@@@@@@@@@@@@+    ",
"+@@@@@@@@@@@@@@@@+    ",
"+@@@@@@@@@@@@@@@@+    ",
"+@@@@@@@@@@@@@@@@+    ",
"+@@@@@@@@@@@@@@@@+    ",
"+@@@@@@@@@@@@@@@@+    ",
"+@@@@@@@@@@@@@@@@+    ",
"+@@@@@@@@@@@@@@@@+    ",
"+@@@@@@@@@@@@@@@@+    ",
"+@@@@@@@@@@@@@@@@+    ",
"+@@@@@@@@@@@@@@@@+    ",
"+@@@@@@@@@@@@@@@@+    ",
"+@@@@@@@@@@@@@@@@+    ",
"+@@@@@@@@@@@@@@@@+    ",
"+@@@@@@@@@@@@@@@@+    ",
"+@@@@@@@@@@@@@@@@+    ",
"+@@@@@@@@@@@@@@@@+    ",
"+@@@@@@@@@@@@@@@@+    ",
"+@@@@@@@@@@@@@@@@+    ",
"+@@@@@@@@@@@@@@@@+    ",
"+@@@@@@@@@@@@@@@@+    ",
"+@@@@@@@@@@@@@@@@+    ",
"+@@@@@@@@@@@@@@@@+    ",
"+@@@@@@@@@@@@@@@@+    ",
"+@@@@@@@@@@@@@@@@+    ",
"+@@@@@@@@@@@@@@@@+    ",
"+@@@@@@@@@@@@@@@@+    ",
"+@@@@@@@@@@@@@@@@+    ",
"+@@@@@@@@@@@@@@@@+    ",
"+@@@@@@@@@@@@@@@@+    ",
"+@@@@@@@@@@@@@@@@+    ",
"+@@@@@@@@@@@@@@@@+    ",
"+@@@@@@@@@@@@@@@@+    ",
"+@@@@@@@@@@@@@@@@+    ",
"+@@@@@@@@@@@@@@@@+    ",
"+@@@@@@@@@@@@@@@@+    ",
"+@@@@@@@@@@@@@@@@+    ",
"+@@@@@@@@@@@@@@@@+    ",
"+@@@@@@@@@@@@@@@@+    ",
"+@@@@@@@@@@@@@@@@+    ",
"+@@@@@@@@@@@@@@@@+    ",
"+@@@@@@@@@@@@@@@@+    ",
"+@@@@@@@@@@@@@@@@+    ",
"+@@@@@@@@@@@@@@@@+    ",
"+@@@@@@@@@@@@@@@@+    ",
"+@@@@@@@@@@@@@@@@+    ",
"+@@@@@@@@@@@@@@@@+    ",
"+@@@@@@@@@@@@@@@@+    ",
"+@@@@@@@@@@@@@@@@+    ",
"+@@@@@@@@@@@@@@@@+    ",
"+@@@@@@@@@@@@@@@@+    ",
"+@@@@@@@@@@@@@@@@+    ",
"+@@@@@@@@@@@@@@@@+    ",
"+@@@@@@@@@@@@@@@@+    ",
"+@@@@@@@@@@@@@@@@+    ",
"+@@@@@@@@@@@@@@@@+    ",
"+@@@@@@@@@@@@@@@@+    ",
"+@@@@@@@@@@@@@@@@+    ",
"+@@@@@@@@@@@@@@@@+    ",
"+@@@@@@@@@@@@@@@@+    ",
"+@@@@@@@@@@@@@@@@+    ",
"+@@@@@@@@@@@@@@@@+    ",
"+@@@@@@@@@@@@@@@@+    ",
"+@@@@@@@@@@@@@@@@+    ",
"+@@@@@@@@@@@@@@@@+    ",
"+@@@@@@@@@@@@@@@@+    ",
"+@@@@@@@@@@@@@@@@+    ",
"+@@@@@@@@@@@@@@@@+    ",
"+@@@@@@@@@@@@@@@@+    ",
"+@@@@@@@@@@@@@@@@+    ",
"+@@@@@@@@@@@@@@@@+    ",
"+@@@@@@@@@@@@@@@@+    ",
"+@@@@@@@@@@@@@@@@+    ",
"+@@@@@@@@@@@@@@@@+    ",
"+@@@@@@@@@@@@@@@@+    ",
"+@@@@@@@@@@@@@@@@+    ",
"+@@@@@@@@@@@@@@@@+    ",
"+@@@@@@@@@@@@@@@@+    ",
"+@@@@@@@@@@@@@@@@+    ",
"+@@@@@@@@@@@@@@@@+    ",
"+@@@@@@@@@@@@@@@@+    ",
"+@@@@@@@@@@@@@@@@+    ",
"+@@@@@@@@@@@@@@@@+    ",
"+@@@@@@@@@@@@@@@@+    ",
"+@@@@@@@@@@@@@@@@+    ",
"+@@@@@@@@@@@@@@@@+    ",
"+@@@@@@@@@@@@@@@@+    ",
"+@@@@@@@@@@@@@@@@+    ",
"+@@@@@@@@@@@@@@@@+    ",
"+@@@@@@@@@@@@@@@@+    ",
"+@@@@@@@@@@@@@@@@+    ",
"+@@@@@@@@@@@@@@@@+    ",
"+@@@@@@@@@@@@@@@@+    ",
"+@@@@@@@@@@@@@@@@+    ",
"+@@@@@@@@@@@@@@@@+    ",
"+@@@@@@@@@@@@@@@@+    ",
"+@@@@@@@@@@@@@@@@+    ",
"+@@@@@@@@@@@@@@@@+    ",
"+@@@@@@@@@@@@@@@@+    ",
"+@@@@@@@@@@@@@@@@+    ",
"+@@@@@@@@@@@@@@@@+    ",
"+@@@@@@@@@@@@@@@@+    ",
"+@@@@@@@@@@@@@@@@+    ",
" +@@@@@@@@@@@@@@@+    ",
"  .@@@@@@@@@@@@@@+    ",
"   .@@@@@@@@@@@@@+    ",
"    .@@@@@@@@@@@@+    ",
"     .@@@@@@@@@@@+    ",
"      .@@@@@@@@@@+    ",
"       .@@@@@@@@@+    ",
"        +@@@@@@@@+    ",
"         +@@@@@@@+    ",
"          +@@@@@@+    ",
"           +@@@@@+    ",
"            +@@@@+    ",
"             +@@@+    ",
"              +@@+    "};
