/* XPM */
static char * maximize_inactive_xpm[] = {
"22 18 3 1",
" 	c None",
".	c #12F784",
"+	c #000000",
"......................",
"++++++++++++++++++++++",
"++++++++++++++++++++++",
"++++++++++++++++++++++",
"+++++++.........++++++",
"+++++++.+++++++.++++++",
"+++++++.+++++++.++++++",
"+++++++.+++++++.++++++",
"+++++++.+++++++.++++++",
"+++++++.+++++++.++++++",
"+++++++.+++++++.++++++",
"+++++++.+++++++.++++++",
"+++++++.........++++++",
"++++++++++++++++++++++",
"++++++++++++++++++++++",
"++++++++++++++++++++++",
"++++++++++++++++++++++",
"......................"};
