/* XPM */
static char * menu_active_xpm[] = {
"22 22 4 1",
" 	c None",
".	c #12F784",
"+	c #000000",
"@	c #FFFFFF",
"......................",
"++++++++++++++++++++++",
"++++++++++++++++++++++",
"++++++++++++++++++++++",
"+++++++@@@@@@@@@++++++",
"++++++++++++++++++++++",
"+++++++@@@@@@@@@++++++",
"++++++++++++++++++++++",
"+++++++@@@@@@@@@++++++",
"++++++++++++++++++++++",
"+++++++@@@@@@@@@++++++",
"++++++++++++++++++++++",
"+++++++@@@@@@@@@++++++",
"++++++++++++++++++++++",
"++++++++++++++++++++++",
"++++++++++++++++++++++",
"++++++++++++++++++++++",
"......................",
"                      ",
"                      ",
"                      ",
"                      "};
