/* XPM */
static char * menu_prelight_xpm[] = {
"22 22 3 1",
" 	c None",
".	c #12F784",
"+	c #000000",
"......................",
"++++++++++++++++++++++",
"++++++++++++++++++++++",
"++++++++++++++++++++++",
"+++++++.........++++++",
"++++++++++++++++++++++",
"+++++++.........++++++",
"++++++++++++++++++++++",
"+++++++.........++++++",
"++++++++++++++++++++++",
"+++++++.........++++++",
"++++++++++++++++++++++",
"+++++++.........++++++",
"++++++++++++++++++++++",
"++++++++++++++++++++++",
"++++++++++++++++++++++",
"++++++++++++++++++++++",
"......................",
"                      ",
"                      ",
"                      ",
"                      "};
