/* XPM */
static char * shade_pressed_xpm[] = {
"22 18 4 1",
" 	c None",
".	c #12F784",
"+	c #000000",
"@	c #006A00",
"......................",
"++++++++++++++++++++++",
"++++++++++++++++++++++",
"++++++++++++++++++++++",
"+++++++++++@++++++++++",
"++++++++++@+@+++++++++",
"+++++++++@+++@++++++++",
"++++++++@+++++@+++++++",
"+++++++@+++++++@++++++",
"++++++@+++++++++@+++++",
"++++++++++++++++++++++",
"++++++++++++++++++++++",
"++++++++++++++++++++++",
"++++++++++++++++++++++",
"++++++++++++++++++++++",
"++++++++++++++++++++++",
"++++++++++++++++++++++",
"......................"};
