/* XPM */
static char * stick_inactive_xpm[] = {
"22 18 5 1",
" 	c None",
".	c #12F784",
"+	c #000000",
"@	c #030303",
"#	c #0A890A",
"......................",
"++++++++++++++++++++++",
"+++++++@......@+++++++",
"++++++....##....++++++",
"+++++...++++++...+++++",
"++++@..++++++++..@++++",
"++++..++++++++++..++++",
"++++..++++++++++..++++",
"++++.#++++++++++#.++++",
"++++.#++++++++++#.++++",
"++++..++++++++++..++++",
"++++..++++++++++..++++",
"++++@..++++++++..@++++",
"+++++...++++++...+++++",
"++++++....##....++++++",
"+++++++@......@+++++++",
"++++++++++++++++++++++",
"......................"};
