/* XPM */
static char * stick_pressed_xpm[] = {
"22 18 14 1",
" 	c None",
".	c #12F784",
"+	c #000000",
"@	c #030303",
"#	c #494949",
"$	c #ABABAB",
"%	c #EFEFEF",
"&	c #272727",
"*	c #EDEDED",
"=	c #CACACA",
"-	c #5F5F5F",
";	c #141414",
">	c #FBFBFB",
",	c #616161",
"......................",
"++++++++++++++++++++++",
"+++++++@#$%%$#@+++++++",
"++++++&*=-;;-=*&++++++",
"+++++&>,++++++,>&+++++",
"++++@*,++++++++,*@++++",
"++++#=++++++++++=#++++",
"++++$-++++++++++-$++++",
"++++%;++++++++++;%++++",
"++++%;++++++++++;%++++",
"++++$-++++++++++-$++++",
"++++#=++++++++++=#++++",
"++++@*,++++++++,*@++++",
"+++++&>,++++++,>&+++++",
"++++++&*=-;;-=*&++++++",
"+++++++@#$%%$#@+++++++",
"++++++++++++++++++++++",
"......................"};
