/* XPM */
static char * top_right_active_xpm[] = {
"8 18 3 1",
" 	c None",
".	c #12F784",
"+	c #000000",
"........",
"+++++++.",
"+++++++.",
"+++++++.",
"+++++++.",
"+++++++.",
"+++++++.",
"+++++++.",
"+++++++.",
"+++++++.",
"+++++++.",
"+++++++.",
"+++++++.",
"+++++++.",
"+++++++.",
"+++++++.",
"+++++++.",
"........"};
